<svg width="16" height="8" viewBox="0 0 16 8" fill="none" xmlns="http://www.w3.org/2000/svg">
<path d="M15.4922 0C15.6276 0 15.7448 0.0494792 15.8438 0.148438C15.9427 0.247396 15.9922 0.364583 15.9922 0.5C15.9922 0.635417 15.9427 0.752604 15.8438 0.851562L8.84375 7.85156C8.74479 7.95052 8.6276 8 8.49219 8C8.35677 8 8.23958 7.95052 8.14062 7.85156L1.14062 0.851562C1.04167 0.752604 0.992188 0.635417 0.992188 0.5C0.992188 0.364583 1.04167 0.247396 1.14062 0.148438C1.23958 0.0494792 1.35677 0 1.49219 0C1.6276 0 1.74479 0.0494792 1.84375 0.148438L8.49219 6.78906L15.1406 0.148438C15.2396 0.0494792 15.3568 0 15.4922 0Z" fill="#484644"/>
</svg>
